<?xml version="1.0" encoding="UTF-8"?>
<svg width="24px" height="24px" viewBox="0 0 24 24" version="1.1" xmlns="http://www.w3.org/2000/svg" xmlns:xlink="http://www.w3.org/1999/xlink">
    <title>画板</title>
    <g id="画板" stroke="none" stroke-width="1" fill="none" fill-rule="evenodd">
        <rect id="矩形" fill="#1AB394" x="0" y="0" width="24" height="24" rx="2.592"></rect>
        <g id="编组-2备份-6" transform="translate(4.032, 2.928)" fill="#FFFFFF" fill-rule="nonzero">
            <g id="编组-2">
                <path d="M2.549,3.093 L2.549,4.773 L1.47197033,5.38828848 L1.47197033,12.8035296 L7.968,16.511423 L8.693,16.097 L8.693,17.778 L7.968,18.192 L0,13.644 L0,4.548 L2.549,3.093 Z M7.968,0 L15.936,4.548 L15.936,13.644 L10.166,16.937 L10.166,15.256 L14.4638457,12.8035296 L14.4638457,5.38828848 L7.968,1.68039504 L4.021,3.932 L4.021,2.253 L7.968,0 Z M2.55551031,6.00005803 C2.61301342,5.96703835 3.10178983,5.68637104 4.02183955,5.1580561 L4.02183955,11.3481696 L6.127,12.549 L6.12786922,9.82368 L7.59997384,9.82368 L7.59976,15.0708036 L2.54976,12.18864 L2.54976,6.00336 Z M8.70405101,3.33088867 L10.176051,4.17088867 L10.1760523,7.14064 L12.062051,5.24788867 L13.380051,5.99888867 L10.2740523,9.11664 L13.382051,12.1898887 L12.063051,12.9428887 L10.1760523,11.07764 L10.1761569,14.0076893 L9.29905101,14.5208887 L8.70405101,14.8608887 L8.70405101,3.33088867 Z" id="形状结合"></path>
            </g>
        </g>
    </g>
</svg>