<?xml version="1.0" encoding="UTF-8"?>
<svg width="152px" height="28px" viewBox="0 0 152 28" version="1.1" xmlns="http://www.w3.org/2000/svg" xmlns:xlink="http://www.w3.org/1999/xlink">
    <title>编组 3备份</title>
    <g id="logo" stroke="none" stroke-width="1" fill="none" fill-rule="evenodd">
        <g id="编组-3备份">
            <g id="编组">
                <rect id="矩形" x="0" y="0" width="152" height="28"></rect>
            </g>
            <g id="编组-2备份-3" transform="translate(0.6935, 0)" fill="#1AB394" fill-rule="nonzero">
                <g id="编组-2">
                    <path d="M3.883,4.701 L3.883,7.255 L2.24215082,8.19093333 L2.24215082,19.4631111 L12.1371045,25.0996148 L13.242,24.47 L13.242,27.025 L12.1371045,27.654321 L0,20.7407407 L0,6.91358025 L3.883,4.701 Z M12.1371045,0 L24.2742091,6.91358025 L24.2742091,20.7407407 L15.485,25.747 L15.485,23.192 L22.031778,19.4631111 L22.031778,8.19093333 L12.1371045,2.55442963 L6.126,5.978 L6.126,3.424 L12.1371045,0 Z M3.88947924,9.12271348 C3.96048595,9.08202254 4.70605642,8.65476762 6.12619064,7.84094871 L6.12619064,9.12592593 L6.12619064,17.2507654 L9.334,19.077 L9.3341603,14.9333333 L11.5765157,14.9333333 L11.5765157,21.017284 L11.5758735,22.9091764 L3.88387345,18.5283951 L3.88387345,9.12592593 Z M13.2580478,5.06317712 L15.5000478,6.34017712 L15.5002822,10.8552346 L18.3740478,7.97717712 L20.3810478,9.12017712 L15.6492822,13.8582346 L20.3850478,18.5311771 L18.3750478,19.6761771 L15.5002822,16.8392346 L15.5006376,21.293598 L14.1630478,22.0751771 L13.2580478,22.5911771 L13.2580478,5.06317712 Z" id="形状结合"></path>
                </g>
            </g>
            <path d="M30.862923,22.2858204 L34.1003041,22.2858204 L34.1003041,2.83114051 L30.862923,2.83114051 L30.862923,22.2858204 Z M35.8432964,22.2858204 L43.8118938,22.2858204 L43.8118938,19.3749655 L35.8432964,19.3749655 L35.8432964,22.2858204 Z M89.3146782,15.3854115 L91.972077,15.3854115 C93.9628422,15.3854115 95.5413907,14.8037396 96.620241,13.8059144 C97.7821435,12.807812 98.3629564,11.2277604 98.3629564,9.06714586 C98.3629564,6.9877658 97.7821435,5.40937771 96.620241,4.41127528 C95.5413907,3.3308294 93.9628422,2.83122368 91.972077,2.83122368 L89.3146782,2.83122368 L89.3146782,5.74180127 L91.8054186,5.74180127 C93.8817277,5.74180127 94.960301,6.8219699 94.960301,9.06714586 C94.960301,11.3949425 93.8817277,12.4748339 91.8054186,12.4748339 L89.3146782,12.4748339 L89.3146782,15.3854115 Z M84.3331974,22.2859035 L87.5716859,22.2859035 L87.5716859,2.83122368 L84.3331974,2.83122368 L84.3331974,22.2859035 Z M75.9880406,7.68164107 L79.0598706,7.68164107 L79.0598706,4.18939157 L75.9880406,4.18939157 L75.9880406,7.68164107 Z M75.9880406,22.1729793 L79.0598706,22.1729793 L79.0598706,10.2512003 L75.9880406,10.2512003 L75.9880406,22.1729793 Z M60.1161802,22.1729793 L63.1869029,22.1729793 L63.1869029,2.7654321 L60.1161802,2.7654321 L60.1161802,22.1729793 Z M68.5825381,7.95805999 L64.9307257,12.1980546 L64.9307257,16.5203926 L72.3185103,7.95805999 L68.5825381,7.95805999 Z M66.0092991,17.8509186 L69.0811292,22.1729793 L72.8159939,22.1729793 L68.0014484,15.5225674 L66.0092991,17.8509186 Z M52.6299785,22.423614 C54.2063124,22.3401615 55.4515442,21.7584896 56.3659507,20.8438396 C57.3614717,19.9291896 57.775903,18.5986636 57.775903,16.9365458 L57.775903,13.195048 C57.775903,11.5326529 57.3614717,10.202127 56.4470652,9.28747698 C55.5348734,8.372827 54.2063124,7.79143233 52.6299785,7.70770263 L52.6299785,10.3690319 C54.039654,10.6182802 54.7040729,11.5326529 54.7040729,12.9455224 L54.7040729,17.185517 C54.7040729,18.5986636 54.039654,19.5133136 52.6299785,19.7622847 L52.6299785,22.423614 Z M50.8869863,22.423614 L50.8869863,19.7622847 C49.4750961,19.5133136 48.7270711,18.5986636 48.7270711,17.185517 L48.7270711,12.9455224 C48.7270711,11.5326529 49.4750961,10.6182802 50.8869863,10.3690319 L50.8869863,7.70770263 C49.2248316,7.79143233 47.9795998,8.372827 47.0674081,9.28747698 C46.1554931,10.2855794 45.6557947,11.5326529 45.6557947,13.195048 L45.6557947,16.9365458 C45.6557947,18.5986636 46.1554931,19.9291896 47.0674081,20.8438396 C47.9795998,21.7584896 49.2248316,22.3401615 50.8869863,22.423614 L50.8869863,22.423614 Z M116.85714,22.423614 C118.433474,22.3401615 119.678705,21.7584896 120.593112,20.8438396 C121.588633,19.9291896 122.003064,18.5986636 122.003064,16.9365458 L122.003064,13.195048 C122.003064,11.5326529 121.588633,10.202127 120.674226,9.28747698 C119.762035,8.372827 118.433474,7.79143233 116.85714,7.70770263 L116.85714,10.3690319 C118.266815,10.6182802 118.931234,11.5326529 118.931234,12.9455224 L118.931234,17.185517 C118.931234,18.5986636 118.266815,19.5133136 116.85714,19.7622847 L116.85714,22.423614 Z M115.114148,22.423614 L115.114148,19.7622847 C113.702257,19.5133136 112.954232,18.5986636 112.954232,17.185517 L112.954232,12.9455224 C112.954232,11.5326529 113.702257,10.6182802 115.114148,10.3690319 L115.114148,7.70770263 C113.451993,7.79143233 112.206761,8.372827 111.294569,9.28747698 C110.382654,10.2855794 109.882956,11.5326529 109.882956,13.195048 L109.882956,16.9365458 C109.882956,18.5986636 110.382654,19.9291896 111.294569,20.8438396 C112.206761,21.7584896 113.451993,22.3401615 115.114148,22.423614 L115.114148,22.423614 Z M104.611096,10.8670424 C105.606617,10.617794 106.771012,10.5354506 108.097358,10.784699 L108.097358,7.95785107 C106.852126,7.70832547 105.68967,7.79177792 104.611096,8.29027463 L104.611096,10.8670424 Z M99.7962741,22.3396753 L102.868104,22.3396753 L102.868104,8.12475598 L99.7962741,8.12475598 L99.7962741,22.3396753 Z M132.575049,16.6867836 L136.561009,22.3396476 L132.908366,22.3396476 L130.83178,19.2646604 L132.575049,16.6867836 Z M136.561009,8.124451 L126.514718,22.3396476 L123.028733,22.3396476 L133.072809,8.124451 L136.561009,8.124451 Z M126.681653,8.124451 L128.757962,11.2831679 L126.931364,13.777315 L123.028733,8.124451 L126.681653,8.124451 Z M141.705936,27.9106672 L144.777766,27.9106672 L152,8.1246728 L148.92817,8.1246728 L141.705936,27.9106672 Z M142.537014,20.6777516 L144.113348,16.2716839 L141.208176,8.1246728 L137.969964,8.1246728 L142.537014,20.6777516 Z" id="形状结合备份-4" fill="#041E39"></path>
        </g>
    </g>
</svg>